<mxfile host="Electron" agent="Mozilla/5.0 (Windows NT 10.0; Win64; x64) AppleWebKit/537.36 (KHTML, like Gecko) draw.io/26.0.9 Chrome/128.0.6613.186 Electron/32.2.5 Safari/537.36" version="26.0.9">
  <diagram name="Página-1" id="Z0rsT4daq-B8AYiZmfk6">
    <mxGraphModel dx="1175" dy="739" grid="1" gridSize="10" guides="1" tooltips="1" connect="1" arrows="1" fold="1" page="1" pageScale="1" pageWidth="1169" pageHeight="827" math="0" shadow="0">
      <root>
        <mxCell id="0" />
        <mxCell id="1" parent="0" />
        <mxCell id="NyU8-ltKQOmrwsuKmkis-60" style="edgeStyle=orthogonalEdgeStyle;rounded=0;orthogonalLoop=1;jettySize=auto;html=1;" edge="1" parent="1" source="NyU8-ltKQOmrwsuKmkis-3" target="NyU8-ltKQOmrwsuKmkis-8">
          <mxGeometry relative="1" as="geometry" />
        </mxCell>
        <mxCell id="NyU8-ltKQOmrwsuKmkis-61" value="Llamada a funcion JS" style="edgeLabel;html=1;align=center;verticalAlign=middle;resizable=0;points=[];" vertex="1" connectable="0" parent="NyU8-ltKQOmrwsuKmkis-60">
          <mxGeometry x="-0.35" y="5" relative="1" as="geometry">
            <mxPoint x="-5" y="5" as="offset" />
          </mxGeometry>
        </mxCell>
        <mxCell id="NyU8-ltKQOmrwsuKmkis-3" value="&lt;span style=&quot;font-weight: 700;&quot;&gt;IINTERFAZ HTML-CSS&lt;/span&gt;" style="swimlane;fontStyle=0;childLayout=stackLayout;horizontal=1;startSize=30;horizontalStack=0;resizeParent=1;resizeParentMax=0;resizeLast=0;collapsible=1;marginBottom=0;whiteSpace=wrap;html=1;" vertex="1" parent="1">
          <mxGeometry x="185" y="20" width="190" height="60" as="geometry" />
        </mxCell>
        <mxCell id="NyU8-ltKQOmrwsuKmkis-4" value="Usuario desliza barra Tpw" style="text;strokeColor=none;fillColor=none;align=left;verticalAlign=middle;spacingLeft=4;spacingRight=4;overflow=hidden;points=[[0,0.5],[1,0.5]];portConstraint=eastwest;rotatable=0;whiteSpace=wrap;html=1;" vertex="1" parent="NyU8-ltKQOmrwsuKmkis-3">
          <mxGeometry y="30" width="190" height="30" as="geometry" />
        </mxCell>
        <mxCell id="NyU8-ltKQOmrwsuKmkis-62" style="edgeStyle=orthogonalEdgeStyle;rounded=0;orthogonalLoop=1;jettySize=auto;html=1;entryX=0.5;entryY=0;entryDx=0;entryDy=0;" edge="1" parent="1" source="NyU8-ltKQOmrwsuKmkis-8" target="NyU8-ltKQOmrwsuKmkis-12">
          <mxGeometry relative="1" as="geometry" />
        </mxCell>
        <mxCell id="NyU8-ltKQOmrwsuKmkis-63" value="Envío comando" style="edgeLabel;html=1;align=center;verticalAlign=middle;resizable=0;points=[];" vertex="1" connectable="0" parent="NyU8-ltKQOmrwsuKmkis-62">
          <mxGeometry x="-0.1" y="-2" relative="1" as="geometry">
            <mxPoint as="offset" />
          </mxGeometry>
        </mxCell>
        <mxCell id="NyU8-ltKQOmrwsuKmkis-8" value="&lt;span style=&quot;font-weight: 700;&quot;&gt;SCRITP JS&lt;/span&gt;" style="swimlane;fontStyle=0;childLayout=stackLayout;horizontal=1;startSize=30;horizontalStack=0;resizeParent=1;resizeParentMax=0;resizeLast=0;collapsible=1;marginBottom=0;whiteSpace=wrap;html=1;" vertex="1" parent="1">
          <mxGeometry x="185" y="140" width="190" height="60" as="geometry">
            <mxRectangle x="510" y="440" width="100" height="30" as="alternateBounds" />
          </mxGeometry>
        </mxCell>
        <mxCell id="NyU8-ltKQOmrwsuKmkis-16" value="Prepara un mensaje (JSON)" style="text;strokeColor=none;fillColor=none;align=left;verticalAlign=middle;spacingLeft=4;spacingRight=4;overflow=hidden;points=[[0,0.5],[1,0.5]];portConstraint=eastwest;rotatable=0;whiteSpace=wrap;html=1;" vertex="1" parent="NyU8-ltKQOmrwsuKmkis-8">
          <mxGeometry y="30" width="190" height="30" as="geometry" />
        </mxCell>
        <mxCell id="NyU8-ltKQOmrwsuKmkis-64" style="edgeStyle=orthogonalEdgeStyle;rounded=0;orthogonalLoop=1;jettySize=auto;html=1;entryX=0.5;entryY=0;entryDx=0;entryDy=0;" edge="1" parent="1" source="NyU8-ltKQOmrwsuKmkis-12" target="NyU8-ltKQOmrwsuKmkis-21">
          <mxGeometry relative="1" as="geometry" />
        </mxCell>
        <mxCell id="NyU8-ltKQOmrwsuKmkis-69" value="Llamada a" style="edgeLabel;html=1;align=center;verticalAlign=middle;resizable=0;points=[];" vertex="1" connectable="0" parent="NyU8-ltKQOmrwsuKmkis-64">
          <mxGeometry x="-0.1414" y="-2" relative="1" as="geometry">
            <mxPoint as="offset" />
          </mxGeometry>
        </mxCell>
        <mxCell id="NyU8-ltKQOmrwsuKmkis-12" value="&lt;b&gt;FUNCIONES&lt;/b&gt;.hpp" style="swimlane;fontStyle=0;childLayout=stackLayout;horizontal=1;startSize=30;horizontalStack=0;resizeParent=1;resizeParentMax=0;resizeLast=0;collapsible=1;marginBottom=0;whiteSpace=wrap;html=1;" vertex="1" parent="1">
          <mxGeometry x="140" y="260" width="280" height="110" as="geometry" />
        </mxCell>
        <mxCell id="NyU8-ltKQOmrwsuKmkis-14" value="onWsEvent: Type Data (Detector tipo evento)" style="text;strokeColor=none;fillColor=none;align=left;verticalAlign=middle;spacingLeft=4;spacingRight=4;overflow=hidden;points=[[0,0.5],[1,0.5]];portConstraint=eastwest;rotatable=0;whiteSpace=wrap;html=1;" vertex="1" parent="NyU8-ltKQOmrwsuKmkis-12">
          <mxGeometry y="30" width="280" height="30" as="geometry" />
        </mxCell>
        <mxCell id="NyU8-ltKQOmrwsuKmkis-15" value="Si el evento es mensaje de texto/comnando" style="text;strokeColor=none;fillColor=none;align=left;verticalAlign=middle;spacingLeft=4;spacingRight=4;overflow=hidden;points=[[0,0.5],[1,0.5]];portConstraint=eastwest;rotatable=0;whiteSpace=wrap;html=1;" vertex="1" parent="NyU8-ltKQOmrwsuKmkis-12">
          <mxGeometry y="60" width="280" height="50" as="geometry" />
        </mxCell>
        <mxCell id="NyU8-ltKQOmrwsuKmkis-75" style="edgeStyle=orthogonalEdgeStyle;rounded=0;orthogonalLoop=1;jettySize=auto;html=1;entryX=0.5;entryY=0;entryDx=0;entryDy=0;" edge="1" parent="1" source="NyU8-ltKQOmrwsuKmkis-21" target="NyU8-ltKQOmrwsuKmkis-65">
          <mxGeometry relative="1" as="geometry" />
        </mxCell>
        <mxCell id="NyU8-ltKQOmrwsuKmkis-21" value="&lt;b&gt;&lt;span style=&quot;color: rgb(38, 127, 153); background-color: rgb(255, 255, 255); font-family: Consolas, &amp;quot;Courier New&amp;quot;, monospace; font-size: 14px; white-space: pre;&quot;&gt;AsyncWebSocket&lt;/span&gt;.&lt;/b&gt;hpp" style="swimlane;fontStyle=0;childLayout=stackLayout;horizontal=1;startSize=30;horizontalStack=0;resizeParent=1;resizeParentMax=0;resizeLast=0;collapsible=1;marginBottom=0;whiteSpace=wrap;html=1;" vertex="1" parent="1">
          <mxGeometry x="140" y="440" width="280" height="150" as="geometry" />
        </mxCell>
        <mxCell id="NyU8-ltKQOmrwsuKmkis-22" value="&lt;div style=&quot;background-color: rgb(255, 255, 255); font-family: Consolas, &amp;quot;Courier New&amp;quot;, monospace; font-size: 14px; line-height: 19px; white-space: pre;&quot;&gt;&lt;span style=&quot;color: #795e26;&quot;&gt;ProcessRequest{&lt;/span&gt;&lt;/div&gt;" style="text;strokeColor=none;fillColor=none;align=left;verticalAlign=middle;spacingLeft=4;spacingRight=4;overflow=hidden;points=[[0,0.5],[1,0.5]];portConstraint=eastwest;rotatable=0;whiteSpace=wrap;html=1;" vertex="1" parent="NyU8-ltKQOmrwsuKmkis-21">
          <mxGeometry y="30" width="280" height="30" as="geometry" />
        </mxCell>
        <mxCell id="NyU8-ltKQOmrwsuKmkis-23" value="1. Deserializa e mensaje" style="text;strokeColor=none;fillColor=none;align=left;verticalAlign=middle;spacingLeft=4;spacingRight=4;overflow=hidden;points=[[0,0.5],[1,0.5]];portConstraint=eastwest;rotatable=0;whiteSpace=wrap;html=1;" vertex="1" parent="NyU8-ltKQOmrwsuKmkis-21">
          <mxGeometry y="60" width="280" height="30" as="geometry" />
        </mxCell>
        <mxCell id="NyU8-ltKQOmrwsuKmkis-70" value="2. Identifica mensaje (set Tpwm, setDuty, setDAC)" style="text;strokeColor=none;fillColor=none;align=left;verticalAlign=middle;spacingLeft=4;spacingRight=4;overflow=hidden;points=[[0,0.5],[1,0.5]];portConstraint=eastwest;rotatable=0;whiteSpace=wrap;html=1;" vertex="1" parent="NyU8-ltKQOmrwsuKmkis-21">
          <mxGeometry y="90" width="280" height="30" as="geometry" />
        </mxCell>
        <mxCell id="NyU8-ltKQOmrwsuKmkis-74" value="3. LLama a la función que ejecuta el comando" style="text;strokeColor=none;fillColor=none;align=left;verticalAlign=middle;spacingLeft=4;spacingRight=4;overflow=hidden;points=[[0,0.5],[1,0.5]];portConstraint=eastwest;rotatable=0;whiteSpace=wrap;html=1;" vertex="1" parent="NyU8-ltKQOmrwsuKmkis-21">
          <mxGeometry y="120" width="280" height="30" as="geometry" />
        </mxCell>
        <mxCell id="NyU8-ltKQOmrwsuKmkis-65" value="&lt;b&gt;&lt;span style=&quot;color: rgb(38, 127, 153); background-color: rgb(255, 255, 255); font-family: Consolas, &amp;quot;Courier New&amp;quot;, monospace; font-size: 14px; white-space: pre;&quot;&gt;API&lt;/span&gt;.&lt;/b&gt;hpp" style="swimlane;fontStyle=0;childLayout=stackLayout;horizontal=1;startSize=30;horizontalStack=0;resizeParent=1;resizeParentMax=0;resizeLast=0;collapsible=1;marginBottom=0;whiteSpace=wrap;html=1;" vertex="1" parent="1">
          <mxGeometry x="190" y="650" width="180" height="120" as="geometry" />
        </mxCell>
        <mxCell id="NyU8-ltKQOmrwsuKmkis-66" value="setTpwm" style="text;strokeColor=none;fillColor=none;align=left;verticalAlign=middle;spacingLeft=4;spacingRight=4;overflow=hidden;points=[[0,0.5],[1,0.5]];portConstraint=eastwest;rotatable=0;whiteSpace=wrap;html=1;" vertex="1" parent="NyU8-ltKQOmrwsuKmkis-65">
          <mxGeometry y="30" width="180" height="30" as="geometry" />
        </mxCell>
        <mxCell id="NyU8-ltKQOmrwsuKmkis-67" value="setDuty" style="text;strokeColor=none;fillColor=none;align=left;verticalAlign=middle;spacingLeft=4;spacingRight=4;overflow=hidden;points=[[0,0.5],[1,0.5]];portConstraint=eastwest;rotatable=0;whiteSpace=wrap;html=1;" vertex="1" parent="NyU8-ltKQOmrwsuKmkis-65">
          <mxGeometry y="60" width="180" height="30" as="geometry" />
        </mxCell>
        <mxCell id="NyU8-ltKQOmrwsuKmkis-76" style="edgeStyle=orthogonalEdgeStyle;rounded=0;orthogonalLoop=1;jettySize=auto;html=1;" edge="1" parent="NyU8-ltKQOmrwsuKmkis-65" source="NyU8-ltKQOmrwsuKmkis-73">
          <mxGeometry relative="1" as="geometry">
            <mxPoint x="310" y="105" as="targetPoint" />
          </mxGeometry>
        </mxCell>
        <mxCell id="NyU8-ltKQOmrwsuKmkis-73" value="setDAC" style="text;strokeColor=none;fillColor=none;align=left;verticalAlign=middle;spacingLeft=4;spacingRight=4;overflow=hidden;points=[[0,0.5],[1,0.5]];portConstraint=eastwest;rotatable=0;whiteSpace=wrap;html=1;" vertex="1" parent="NyU8-ltKQOmrwsuKmkis-65">
          <mxGeometry y="90" width="180" height="30" as="geometry" />
        </mxCell>
        <mxCell id="NyU8-ltKQOmrwsuKmkis-77" value="NOTA: LAS FUNCIONES setDuty y setPwm se realizan mediante código, y hacen una llamada adiciona ala función ESP32Peri.php" style="text;html=1;align=center;verticalAlign=middle;resizable=0;points=[];autosize=1;strokeColor=none;fillColor=none;" vertex="1" parent="1">
          <mxGeometry x="20" y="770" width="720" height="30" as="geometry" />
        </mxCell>
      </root>
    </mxGraphModel>
  </diagram>
</mxfile>
